PathFileType	4	(x/y/z)	TRC_MarkerData\Passive\Passive_Pref0009.trc
DataRate	CameraRate	NumFrames	NumMarkers	Units	OrigDataRate	OrigDataStartFrame	OrigNumFrames
240	240	6	50	mm	240	132	262
Frame#	Time	R_AC			L_AC			HEAD			STERN			L_IC			R_IC			L_ASIS			R_ASIS			L_GT			R_GT			L_PSIS			R_PSIS			SACRAL			L_LAT_KNEE			L_MED_KNEE			R_LAT_KNEE			R_MED_KNEE			L_LAT_ANK			L_MED_ANK			R_LAT_ANK			R_MED_ANK			L_THIGH_PROX_POST			L_THIGH_PROX_ANT			L_THIGH_DIST_ANT			L_THIGH_DIST_POST			R_THIGH_PROX_POST			R_THIGH_PROX_ANT			R_THIGH_DIST_ANT			R_THIGH_DIST_POST			L_SHANK_PROX_POST			L_SHANK_PROX_ANT			L_SHANK_DIST_ANT			L_SHANK_DIST_POST			R_SHANK_PROX_POST			R_SHANK_PROX_ANT			R_SHANK_DIST_ANT			R_SHANK_DIST_POST			L_HEEL_LAT			L_HEEL_SUP			L_HEEL_MED			R_HEEL_LAT			R_HEEL_SUP			R_HEEL_MED			L_1ST_MET			L_5TH_MET			L_TOE			R_1ST_MET			R_5TH_MET			R_TOE			C7			
		X1	Y1	Z1	X2	Y2	Z2	X3	Y3	Z3	X4	Y4	Z4	X5	Y5	Z5	X6	Y6	Z6	X7	Y7	Z7	X8	Y8	Z8	X9	Y9	Z9	X10	Y10	Z10	X11	Y11	Z11	X12	Y12	Z12	X13	Y13	Z13	X14	Y14	Z14	X15	Y15	Z15	X16	Y16	Z16	X17	Y17	Z17	X18	Y18	Z18	X19	Y19	Z19	X20	Y20	Z20	X21	Y21	Z21	X22	Y22	Z22	X23	Y23	Z23	X24	Y24	Z24	X25	Y25	Z25	X26	Y26	Z26	X27	Y27	Z27	X28	Y28	Z28	X29	Y29	Z29	X30	Y30	Z30	X31	Y31	Z31	X32	Y32	Z32	X33	Y33	Z33	X34	Y34	Z34	X35	Y35	Z35	X36	Y36	Z36	X37	Y37	Z37	X38	Y38	Z38	X39	Y39	Z39	X40	Y40	Z40	X41	Y41	Z41	X42	Y42	Z42	X43	Y43	Z43	X44	Y44	Z44	X45	Y45	Z45	X46	Y46	Z46	X47	Y47	Z47	X48	Y48	Z48	X49	Y49	Z49	X50	Y50	Z50	

132	0.54792	-91.797	1476.5	398.35	-40.3	1494.8	52.228	-67.967	1770.7	225.61	-28.268	1427.7	225.45	-129.85	1052.6	65.294	-90.915	1084.3	388.43	-71.877	971.17	83.892	-16.965	995.04	354.44	-182.75	895.62	50.24	-70.009	927.23	423.11	-235.98	1043.3	196.01	-222.84	1055.3	287.32	-242.34	1016.9	245.93	-257.86	501.97	111.43	-285.13	515.37	246.32	45.887	531.5	349.71	24.366	544.19	217.82	-475.98	143.87	147.16	-473.43	144.99	218.75	156.8	113.54	296.92	160.68	146.1	210.44	-224.23	737.19	85.016	-162.85	719.68	88.886	-175.63	647.87	105.35	-239.67	664.13	99.01	-51.027	707.76	389.39	11.28	735.66	392.34	35.1	666.76	375.27	-26.682	639.27	369.95	-312.47	434.39	117.18	-268.64	424.32	142.71	-304.99	378.2	149.99	-360.91	395.54	140.66	30.311	353.23	337.2	95.021	375.42	345.16	116	303.56	330.46	48.898	283.46	319.79	-582.22	108.49	155.87	-575	137.12	189.77	-578.5	107.71	223.26	124.49	28.578	259.4	110.32	56.383	228.06	136.22	43.719	195.12	-385.81	53.11	230.79	-418.94	40.544	125.29	-325.05	47.989	196.79	313.56	139.59	224.65	287.96	99.444	322.88	354.43	159.82	281.55	-141.33	1546.3	213.9
133	0.55211	-85.628	1474.9	398.83	-34.006	1493.6	52.826	-61.989	1769.4	225.99	-22.051	1426.3	225.87	-123.4	1051.1	65.072	-84.485	1082.9	388.4	-65.316	969.72	83.648	-10.286	993.86	354.4	-176.31	894.2	50.062	-63.183	926.13	422.83	-229.42	1041.8	195.88	-216.37	1053.8	287.19	-235.76	1015.3	245.77	-252.35	500.61	111.29	-279.46	514.42	246.18	53.897	530.8	348.49	32.559	543.9	216.88	-474.47	145.03	147.15	-471.91	146.15	218.76	159.72	112.3	295.83	163.83	144.26	209.11	-218.29	735.99	84.986	-156.9	718.36	88.755	-169.84	646.57	105.21	-233.86	662.95	98.952	-43.454	706.79	388.55	18.627	734.94	391.53	42.753	666.12	374.27	-18.941	638.42	368.97	-307.71	433.65	117.06	-263.97	423.09	142.6	-300.84	377.4	149.9	-356.59	395.36	140.56	36.633	352.82	336.1	101.64	374.34	343.7	121.72	302.24	328.99	54.328	282.85	318.86	-580.84	110.74	155.9	-573.44	139.4	189.77	-577.34	110.06	223.29	125.52	28.514	258.93	112.04	56.429	227.42	137.56	42.864	194.53	-385.59	53.138	230.86	-418.62	40.836	125.35	-324.82	47.67	196.87	316.65	135.06	222.97	290.5	96.065	321.39	357.94	155.01	279.71	-135.23	1545.1	214.47
134	0.55629	-79.455	1473.4	399.33	-27.721	1492.5	53.427	-55.998	1768.2	226.38	-15.829	1425	226.32	-116.87	1049.7	64.846	-78.049	1081.6	388.38	-58.686	968.3	83.441	-3.598	992.74	354.39	-169.77	892.77	49.864	-56.395	925.08	422.58	-222.83	1040.3	195.71	-209.88	1052.3	287.02	-229.15	1013.8	245.57	-246.64	499.2	111.12	-273.59	513.45	246.02	61.924	530.17	347.32	40.624	543.63	216.01	-472.87	146.27	147.14	-470.29	147.39	218.77	162.54	111.1	294.85	166.84	142.47	207.89	-212.24	734.77	84.948	-150.84	717.05	88.629	-163.92	645.26	105.07	-227.92	661.76	98.881	-35.917	705.86	387.75	25.939	734.24	390.77	50.357	665.49	373.32	-11.255	637.61	368.02	-302.78	432.89	116.91	-259.13	421.83	142.48	-296.52	376.58	149.79	-352.09	395.19	140.43	42.964	352.49	335.11	108.27	373.34	342.31	127.43	300.99	327.61	59.743	282.31	318.06	-579.38	113.14	155.93	-571.77	141.84	189.77	-576.09	112.58	223.31	126.37	28.533	258.56	113.58	56.568	226.9	138.7	42.104	194.05	-385.31	53.194	230.97	-418.25	41.177	125.43	-324.57	47.312	196.97	319.58	130.48	221.33	292.91	92.664	319.95	361.33	150.1	277.88	-129.13	1543.9	215.06
135	0.56047	-73.281	1472	399.84	-21.447	1491.5	54.026	-49.992	1767	226.78	-9.6038	1423.7	226.78	-110.25	1048.4	64.615	-71.606	1080.3	388.36	-51.991	966.9	83.275	3.0929	991.68	354.43	-163.14	891.34	49.649	-49.648	924.07	422.36	-216.21	1038.7	195.49	-203.37	1050.8	286.82	-222.52	1012.3	245.32	-240.73	497.74	110.92	-267.49	512.44	245.83	69.962	529.61	346.2	48.538	543.38	215.23	-471.15	147.6	147.12	-468.56	148.72	218.78	165.25	109.97	293.99	169.72	140.75	206.78	-206.08	733.54	84.904	-144.66	715.75	88.508	-157.86	643.96	104.91	-221.85	660.55	98.798	-28.42	704.97	387	33.217	733.57	390.07	57.908	664.9	372.44	-3.6255	636.85	367.13	-297.65	432.1	116.73	-254.11	420.53	142.33	-292.04	375.76	149.67	-347.41	395.02	140.29	49.304	352.24	334.24	114.91	372.41	340.99	133.13	299.82	326.3	65.151	281.86	317.4	-577.82	115.72	155.96	-569.98	144.44	189.76	-574.72	115.26	223.34	127.08	28.626	258.3	114.99	56.795	226.5	139.68	41.448	193.66	-384.97	53.28	231.09	-417.84	41.572	125.52	-324.29	46.909	197.08	322.35	125.89	219.74	295.2	89.265	318.55	364.61	145.13	276.09	-123.04	1542.8	215.67
136	0.56466	-67.107	1470.5	400.35	-15.187	1490.4	54.618	-43.971	1765.8	227.19	-3.3767	1422.4	227.26	-103.56	1047	64.382	-65.159	1079.1	388.34	-45.239	965.55	83.15	9.7811	990.7	354.5	-156.41	889.91	49.417	-42.941	923.11	422.16	-209.55	1037.3	195.23	-196.86	1049.4	286.58	-215.87	1010.8	245.04	-234.59	496.23	110.7	-261.18	511.4	245.61	78.001	529.12	345.14	56.286	543.14	214.52	-469.31	149.02	147.1	-466.71	150.15	218.79	167.88	108.89	293.25	172.49	139.1	205.79	-199.8	732.3	84.855	-138.37	714.46	88.395	-151.65	642.67	104.76	-215.62	659.31	98.703	-20.964	704.13	386.32	40.464	732.93	389.45	65.409	664.33	371.62	3.9471	636.13	366.3	-292.32	431.29	116.53	-248.89	419.21	142.16	-287.37	374.93	149.53	-342.53	394.86	140.13	55.65	352.07	333.51	121.55	371.57	339.77	138.83	298.73	325.08	70.548	281.49	316.86	-576.16	118.48	155.99	-568.05	147.2	189.75	-573.21	118.12	223.37	127.69	28.786	258.12	116.29	57.101	226.22	140.51	40.901	193.37	-384.57	53.4	231.23	-417.39	42.029	125.64	-323.98	46.46	197.2	324.98	121.34	218.2	297.39	85.892	317.22	367.76	140.15	274.35	-116.97	1541.7	216.3
137	0.56884	-60.933	1469.1	400.87	-8.9399	1489.4	55.2	-37.934	1764.8	227.61	2.851	1421.2	227.74	-96.797	1045.8	64.15	-58.712	1077.9	388.32	-38.435	964.23	83.067	16.461	989.79	354.61	-149.6	888.49	49.171	-36.277	922.22	422	-202.88	1035.8	194.94	-190.33	1048	286.32	-209.21	1009.5	244.72	-228.24	494.66	110.45	-254.62	510.31	245.37	86.035	528.7	344.14	63.858	542.92	213.89	-467.35	150.56	147.08	-464.72	151.68	218.8	170.42	107.88	292.62	175.16	137.55	204.94	-193.4	731.05	84.802	-131.96	713.19	88.289	-145.29	641.39	104.6	-209.25	658.06	98.597	-13.547	703.36	385.7	47.683	732.34	388.88	72.86	663.81	370.87	11.466	635.47	365.53	-286.78	430.46	116.31	-243.48	417.85	141.97	-282.53	374.09	149.37	-337.44	394.7	139.95	61.993	351.99	332.9	128.18	370.81	338.63	144.5	297.73	323.95	75.931	281.21	316.47	-574.38	121.44	156.03	-565.97	150.14	189.75	-571.57	121.17	223.41	128.23	29.002	258.02	117.49	57.476	226.03	141.24	40.465	193.16	-384.08	53.558	231.4	-416.89	42.557	125.77	-323.64	45.962	197.34	327.47	116.87	216.73	299.48	82.57	315.97	370.8	135.2	272.67	-110.89	1540.8	216.94
